<svg viewBox="0 0 1024.004 1054.968" xmlns="http://www.w3.org/2000/svg"><path d="M112.178 491.908h799.65c61.92.08 112.096 50.254 112.176 112.167V805.16H.004V605.013c-.002-.277-.004-.604-.004-.93 0-61.953 50.222-112.176 112.175-112.176h.004zm865.28 266.705v-154.53c-.053-36.226-29.404-65.577-65.624-65.63H112.178h-.004c-36.246 0-65.63 29.383-65.63 65.63 0 .245.002.49.005.735v-.037 153.834zM156.396 137.697H867.61c61.92.08 112.096 50.254 112.176 112.167v288.59H44.222V249.872c.08-61.92 50.254-112.095 112.167-112.175h.007zm776.843 354.21V249.873c-.054-36.225-29.405-65.576-65.625-65.63h-711.22c-36.225.054-65.576 29.405-65.63 65.625v242.04zM289.98 315.036H423.1c61.92.08 112.096 50.254 112.176 112.167v111.252h-357.47V427.21c.08-61.92 50.255-112.095 112.168-112.175h.008zm198.75 176.873V427.21c-.053-36.225-29.404-65.576-65.624-65.63H289.98c-36.224.054-65.575 29.405-65.628 65.625v64.703zm112.175-176.873h133.12c61.92.08 112.095 50.254 112.175 112.167v111.252H488.73V427.21c.08-61.92 50.255-112.095 112.168-112.175h.008zm198.75 176.873V427.21c-.054-36.225-29.405-65.576-65.625-65.63H600.905c-36.225.054-65.576 29.405-65.63 65.625v64.703zM90.766 915.938H44.222v-133.12h46.545zm889.018 0H933.24v-133.12h46.545z"/></svg>